# xmcd
#
# Track frame offsets:
#	150
#	13924
#	30611
#	45173
#	61419
#	75870
#	102637
#	117654
#	133117
#	148793
#	166302
#	179240
#	196366
#	211512
#	227937
#	246810
#	262397
#	277997
#
# Disc length: 3885 seconds
#
# Revision: 1
# Processed by: cddbd v1.5.2PL0 Copyright (c) Steve Scherf et al.
# Submitted via: EZCDAudioConverter 1.0.8.1
#
DISCID=0b0f2b12
DTITLE=Various Artist - New Country Rock, Vol. 6
DYEAR=2013
DGENRE=Country
TTITLE0=Laura Bryna - Same Dog
TTITLE1=Debbie Nunn - Ain't Going Out Tonight
TTITLE2=Rick Monroe - Crazy Not To
TTITLE3=Delta Moon - Applejack
TTITLE4=Søren Carter - 1000 Times
TTITLE5=Geoff Achison and The Souldiggers - Crazy Horse
TTITLE6=Bufallo C. Wayne - A Texan Night Out
TTITLE7=Cody McCarver - Red Flag
TTITLE8=Hot'N'Nasty - Turn Around
TTITLE9=John Campbelljohn - Lockdown
TTITLE10=Zona Jones - Never Took My Eyes Off You
TTITLE11=Twilight Hotel - Viva La Vinyl
TTITLE12=Sammy Kershaw - Everybody Wants My Girl
TTITLE13=Timo Gross - I Don't Know Why
TTITLE14=Jim Pyle - Angles In The Sky
TTITLE15=Tim Grimm - China
TTITLE16=Eric Heatherly - Curb Appeal
TTITLE17=JP Den Tex - Teenage Town Revisited
EXTD=
EXTT0=
EXTT1=
EXTT2=
EXTT3=
EXTT4=
EXTT5=
EXTT6=
EXTT7=
EXTT8=
EXTT9=
EXTT10=
EXTT11=
EXTT12=
EXTT13=
EXTT14=
EXTT15=
EXTT16=
EXTT17=
PLAYORDER=
